<svg viewBox="0 0 1024 1024" xmlns="http://www.w3.org/2000/svg">
<defs>
    <style>
        .svg-obj {
            fill: url("#crewfade");
        }
    </style>
    <linearGradient id='crewfade' gradientUnits='objectBoundingBox' x1='0' y1='0' x2='1' y2='1'>
        <stop offset='0' stop-color='#ff9f21'></stop>
        <stop offset='.5' stop-color='#ff9f21'></stop>
        <stop offset='1' stop-color='#fb5141'></stop>
    </linearGradient>
</defs>
<path class="svg-obj" d="M748.586 276.233l98.4-100.084L971.502 53.317h-43.535l-125.97 122.83H270.91L2.502 863.093h159.68l41.4-40.944h-71.06l42.853-113.732 377.59-250.21s63.69-45.494 54.593-86.438c-9.1-40.943-54.592-31.845-54.592-31.845s-50.042-9.1-95.535 77.338H307.306s77.338-200.168 277.506-204.717c0 0 113.734-4.55 163.776 63.69m27.296 50.042S844.122 485.5 502.924 672.02H692.22L628.348 822.15H275.46l-200.17 200.17h48.223L280.01 863.09h477.674l263.86-686.943H925.28L775.882 326.274"/>
</svg>